#Unknown ASF file
:ROOT_YZX
:FOOT_3DOF
:FULLY-SPECIFIED
:DEGREES
1338
root 4.65918 17.8188 -9.77311 -4.80691 -173.234 3.68522
lfemur -2.23082 1.35476 -26.8068
ltibia 29.958
lfoot -17.3104 0 -3.36028
ltoes -18.798
rfemur -26.7383 -9.00647 15.2803
rtibia 55.8237
rfoot -11.8091 0 -10.713
rtoes -8.08579
lowerback 10.8429 0.650513 -7.06955
upperback 2.64213 -0.107379 1.11993
thorax -3.30401 -0.10506 5.18795
lowerneck -15.1088 -3.29991 -15.1158
upperneck 30.4717 -5.64612 9.47436
head 13.467 -3.76168 5.31478
lclavicle -4.96962e-015 6.36111e-015
lhumerus -30.3271 5.74445 86.161
lradius 27.2279
lwrist -0.916781
lhand -11.7081 31.5219
lfingers 7.12502
lthumb 14.3383 61.0068
rclavicle -4.96962e-015 6.36111e-015
rhumerus -34.4896 -15.7519 -76.3048
rradius 23.4249
rwrist 7.5253
rhand -19.592 13.2098
rfingers 7.12502
rthumb 6.73365 -16.6631
1339
root 4.62968 17.8748 -10.2364 -4.11235 -173.027 4.21768
lfemur 0.361111 2.01536 -27.1713
ltibia 26.7606
lfoot -16.7671 0 -3.81146
ltoes -18.3221
rfemur -27.1841 -8.34756 15.0651
rtibia 43.9005
rfoot -10.5885 0 -12.3847
rtoes -6.59468
lowerback 10.7474 0.0466639 -7.56665
upperback 1.61684 -0.911378 1.05718
thorax -4.20614 -0.395695 5.52151
lowerneck -12.9599 -2.29999 -14.1268
upperneck 30.5958 -4.9831 9.09887
head 12.888 -3.56582 5.08367
lclavicle 1.27719e-014 2.78299e-014
lhumerus -30.6053 2.91546 86.4798
lradius 29.2363
lwrist 0.538648
lhand -12.2096 30.5501
lfingers 7.12502
lthumb 13.855 60.0686
rclavicle 1.27719e-014 2.78299e-014
rhumerus -37.0268 -15.5825 -75.7509
rradius 23.3304
rwrist 8.65008
rhand -19.4334 14.6013
rfingers 7.12502
rthumb 6.88677 -15.2667
1340
root 4.59881 17.8878 -10.7257 -3.68619 -172.931 4.36075
lfemur 3.61289 2.62429 -27.1355
ltibia 23.096
lfoot -16.1 0 -3.96799
ltoes -17.0511
rfemur -26.028 -6.75522 14.857
rtibia 31.1802
rfoot -7.62848 0 -12.4444
rtoes -7.12371
lowerback 9.82269 -0.237057 -7.52408
upperback 2.17499 -1.20331 1.3961
thorax -3.05474 -0.617542 5.86356
lowerneck -14.6296 -2.60338 -14.1524
upperneck 31.0932 -5.02908 8.82472
head 13.4684 -3.56786 4.98723
lclavicle 7.70291e-015 -9.54166e-015
lhumerus -28.2635 0.243161 87.3415
lradius 31.5529
lwrist 1.06714
lhand -13.9195 28.1089
lfingers 7.12502
lthumb 12.2068 57.7327
rclavicle 7.70291e-015 -9.54166e-015
rhumerus -36.5115 -14.9786 -75.9059
rradius 23.4091
rwrist 7.89948
rhand -19.5393 14.1133
rfingers 7.12502
rthumb 6.78453 -15.7579
1341
root 4.57197 17.8752 -11.2205 -3.30102 -172.8 4.54899
lfemur 6.9323 3.07157 -26.998
ltibia 19.3947
lfoot -16.122 0 -4.72833
ltoes -16.5528
rfemur -25.3182 -2.01433 13.2039
rtibia 21.6817
rfoot -10.4214 0 -12.3471
rtoes -14.339
lowerback 9.26317 -0.536154 -7.51297
upperback 2.42925 -1.55109 1.71071
thorax -2.41462 -0.832015 6.20863
lowerneck -16.1423 -2.5631 -14.096
upperneck 32.0523 -4.80231 8.69529
head 14.1837 -3.48841 4.99297
lclavicle 1.03368e-014 2.94201e-014
lhumerus -26.5644 -1.90023 87.7114
lradius 33.9271
lwrist 1.57362
lhand -12.943 30.0547
lfingers 7.12502
lthumb 13.1481 59.6202
rclavicle 1.03368e-014 2.94201e-014
rhumerus -36.522 -14.0529 -75.9625
rradius 23.9755
rwrist 7.22458
rhand -19.7194 14.1602
rfingers 7.12502
rthumb 6.6107 -15.7166
1342
root 4.56492 17.7782 -11.677 -2.52145 -172.875 5.92619
lfemur 8.31154 3.24769 -28.179
ltibia 18.3285
lfoot -17.839 0 -5.35837
ltoes -19.1659
rfemur -26.7548 -1.37314 11.3696
rtibia 19.1926
rfoot -15.0103 0 -10.4298
rtoes -19.976
lowerback 9.04891 -0.762613 -8.65145
upperback 2.00761 -1.92849 1.47257
thorax -2.6437 -0.975527 6.64511
lowerneck -15.7537 -2.2159 -13.731
upperneck 32.1954 -4.56496 8.68588
head 14.1056 -3.38975 4.9635
lclavicle 1.59028e-014 -1.82882e-014
lhumerus -25.926 -4.15607 87.6633
lradius 35.6494
lwrist 4.00708
lhand -13.5751 30.1341
lfingers 7.12502
lthumb 12.5388 59.7379
rclavicle 1.59028e-014 -1.82882e-014
rhumerus -37.3234 -13.5339 -76.0779
rradius 24.5784
rwrist 6.35289
rhand -19.922 14.6751
rfingers 7.12502
rthumb 6.41513 -15.2077
1343
root 4.55953 17.6733 -12.1358 -2.48872 -173.798 5.99894
lfemur 9.92034 3.3348 -27.9976
ltibia 18.4986
lfoot -18.7458 0 -5.42102
ltoes -19.4964
rfemur -28.0704 -3.85735 12.7306
rtibia 22.2126
rfoot -18.2459 0 -7.00789
rtoes -1.21784
lowerback 9.77927 -0.747838 -8.35
upperback 1.93606 -1.95129 1.58032
thorax -3.12817 -0.965688 6.61996
lowerneck -15.3027 -1.8592 -13.2032
upperneck 31.8017 -4.01709 8.14694
head 13.7229 -3.14354 4.72102
lclavicle 3.27995e-014 -2.8625e-014
lhumerus -25.5174 -5.20585 87.2571
lradius 37.8342
lwrist 5.53432
lhand -14.8804 28.7885
lfingers 7.12502
lthumb 11.2801 58.4652
rclavicle 3.27995e-014 -2.8625e-014
rhumerus -37.3873 -13.5296 -76.0062
rradius 24.3579
rwrist 6.93041
rhand -20.1007 14.4811
rfingers 7.12502
rthumb 6.24258 -15.4069
1344
root 4.56585 17.5906 -12.6241 -2.6365 -174.548 6.50469
lfemur 12.4921 2.38734 -28.7675
ltibia 17.5256
lfoot -18.6733 0 -4.12118
ltoes -22.7066
rfemur -28.8283 -3.38781 12.5585
rtibia 26.6113
rfoot -7.9697 0 -7.48367
rtoes -17.2567
lowerback 10.3186 -0.84677 -8.79799
upperback 2.23088 -2.19756 1.80341
thorax -3.04782 -1.1151 7.15833
lowerneck -15.9776 -4.20113 -12.1704
upperneck 32.1669 -2.22368 6.39189
head 13.8917 -0.802229 4.52313
lclavicle -1.60022e-014 1.35174e-014
lhumerus -25.1849 -3.8029 86.7409
lradius 39.782
lwrist 5.53518
lhand -15.1072 29.1891
lfingers 7.12502
lthumb 11.0614 58.8776
rclavicle -1.60022e-014 1.35174e-014
rhumerus -36.8009 -13.6931 -75.6955
rradius 24.3667
rwrist 7.2785
rhand -19.8032 14.2028
rfingers 7.12502
rthumb 6.52982 -15.6766
1345
root 4.58694 17.631 -13.1577 -2.54056 -174.222 5.86625
lfemur 13.6654 0.169717 -28.5257
ltibia 18.4181
lfoot -16.9319 0 -2.52695
ltoes -24.3018
rfemur -28.6957 -3.03387 13.2405
rtibia 28.8643
rfoot -5.66231 0 -8.37045
rtoes -14.3075
lowerback 10.375 -1.23858 -8.24329
upperback 2.70219 -2.68238 2.48363
thorax -2.48529 -1.43009 7.61373
lowerneck -16.9096 -4.00993 -12.1085
upperneck 32.1139 -1.7214 5.73467
head 14.0099 -0.701118 4.31701
lclavicle 2.5842e-014 -6.52014e-014
lhumerus -24.1964 -2.12112 86.8258
lradius 39.9446
lwrist 6.18661
lhand -15.8654 29.1202
lfingers 7.12502
lthumb 10.33 58.8465
rclavicle 2.5842e-014 -6.52014e-014
rhumerus -35.4691 -15.4659 -74.6382
rradius 23.5567
rwrist 7.53486
rhand -20.6972 13.4076
rfingers 7.12502
rthumb 5.66675 -16.4966
1346
root 4.60397 17.6938 -13.7194 -1.86105 -175.486 4.84499
lfemur 13.2687 -0.807061 -27.8532
ltibia 21.4266
lfoot -15.0662 0 -0.973191
ltoes -30.8503
rfemur -28.5593 -2.59932 14.8944
rtibia 30.1919
rfoot -3.10572 0 -5.43781
rtoes -18.2545
lowerback 10.5302 -1.24742 -7.25646
upperback 1.77912 -2.53655 3.19411
thorax -3.5819 -1.25259 7.83376
lowerneck -15.3195 -3.46682 -11.7987
upperneck 32.5004 -0.651088 4.83423
head 13.7134 -0.242709 4.08975
lclavicle 2.60408e-014 2.22639e-014
lhumerus -27.1169 0.056484 87.1871
lradius 40.506
lwrist 6.11482
lhand -16.8793 28.9284
lfingers 7.12502
lthumb 9.35179 58.701
rclavicle 2.60408e-014 2.22639e-014
rhumerus -36.8461 -16.1103 -73.0683
rradius 23.2225
rwrist 7.53488
rhand -20.6507 11.8011
rfingers 7.12502
rthumb 5.71158 -18.1019
